<svg xmlns="http://www.w3.org/2000/svg"><symbol id="digital" viewBox="0 0 100 100"><path fill="#bfbfbf" d="M97.6 18.4v4.5H2.9v-4.5h94.7z"/><path fill="#b8e5f9" d="M91.1 29v46.5L79.5 52.3 91.1 29z"/><path fill="#b8e5f9" d="M91.1 29L79.5 52.3 67.9 29h23.2zM79.5 52.3l11.6 23.2H67.9l11.6-23.2z"/><path fill="#b8e5f9" d="M79.5 52.3L67.9 75.5V29l11.6 23.3z"/><path fill="#f8bbc6" d="M61.4 29v21.5L34.9 39.8 61.4 29z"/><path fill="#f8bbc6" d="M61.4 29L34.9 39.8 8.4 29h53zm0 21.5h-53l26.5-10.7 26.5 10.7z"/><path fill="#f8bbc6" d="M34.9 39.8L8.4 50.5V29l26.5 10.8z"/><path fill="none" stroke="#000" stroke-miterlimit="10" stroke-width="2" d="M97.6 22.9v58.7H2.9V18.4h94.7v4.5zm-.2 0H2.5"/><path fill="none" stroke="#000" stroke-miterlimit="10" stroke-width="2" d="M67.9 29h23.3v46.53H67.9z"/><path fill="none" stroke="#000" stroke-miterlimit="10" stroke-width="2" d="M67.9 75.5l11.6-23.2L91.1 29"/><path fill="none" stroke="#000" stroke-miterlimit="10" stroke-width="2" d="M91.1 75.5L79.5 52.3 67.9 29M8.4 29h53v21.51h-53z"/><path fill="none" stroke="#000" stroke-miterlimit="10" stroke-width="2" d="M8.4 50.5l26.5-10.7L61.4 29"/><path fill="none" stroke="#000" stroke-miterlimit="10" stroke-width="2" d="M61.4 50.5L34.9 39.8 8.4 29m-.2 28.2h54.1M8.2 62.1h54.1M8.2 66.4h54.1"/></symbol><symbol id="branding" viewBox="0 0 100 100"><path fill="#fff" stroke="#000" stroke-miterlimit="10" stroke-width="2.1" d="M33.9 37.9v24.9H16.26V37.9z"/><circle cx="25.3" cy="51.5" r="3.7" fill="#b8e5f9" stroke="#000" stroke-miterlimit="10" stroke-width="2"/><circle cx="25.4" cy="42.9" r=".7" fill="#fff"/><path d="M25.4 41.2a1.8 1.8 0 0 0-1.8 1.7 1.7 1.7 0 0 0 1.8 1.7 1.7 1.7 0 0 0 1.7-1.7 1.8 1.8 0 0 0-1.7-1.7z"/><path fill="#fff" stroke="#000" stroke-miterlimit="10" stroke-width="2" d="M6.8 68.9h26.9v14.84H6.8z"/><circle cx="14.1" cy="76.3" r="3.7" fill="#b8e5f9" stroke="#000" stroke-miterlimit="10" stroke-width="2"/><path fill="#fff" stroke="#000" stroke-linecap="round" stroke-miterlimit="10" stroke-width="2" d="M21.4 74.5h8.2M21.4 78h8.2M21 58.9h8.2"/><path fill="#fff" stroke="#000" stroke-miterlimit="10" stroke-width="2" d="M46.9 16.3h46.3v62.28H46.9z"/><path fill="#fff" stroke="#000" stroke-miterlimit="10" stroke-width="2" d="M40.9 21.4h46.3v62.28H40.9z"/><circle cx="49.6" cy="30.1" r="4" fill="#b8e5f9" stroke="#000" stroke-miterlimit="10" stroke-width="2"/><path fill="#fff" stroke="#000" stroke-linecap="round" stroke-miterlimit="10" stroke-width="2" d="M69.4 26.2h12.9m-12.9 3.6h12.9M46.1 42H80m-33.9 3.5H80m-33.9 4.1H80m-33.9 3.5H80m-33.9 3.6H80m-33.9 3.5h21"/></symbol><symbol id="motion" viewBox="0 0 100 100"><path fill="#b2f1ee" d="M91.6 18.3a.9.9 0 0 1 .7 1.1l-2.6 12.7h-.1l-16.4-3.3H73L75.5 16a.9.9 0 0 1 1.1-.7zM87 45.6L84.3 59h-.1l-16.4-3.3h-.3l2.8-13.5.2.1 16.4 3.3h.1zm-5.4 26.9L79 85.2a.9.9 0 0 1-1.1.7l-14.9-3a.9.9 0 0 1-.7-1.1l2.5-12.7h.3l16.3 3.3z"/><path fill="none" stroke="#000" stroke-miterlimit="10" stroke-width="2" d="M81.6 72.5L79 85.2a.9.9 0 0 1-1.1.7l-14.9-3a.9.9 0 0 1-.7-1.1l2.5-12.7 2.8-13.4 2.7-13.5L73 28.8 75.5 16a.9.9 0 0 1 1.1-.7l15 3a.9.9 0 0 1 .7 1.1l-2.6 12.7L87 45.6 84.3 59zm-.2 0l-16.3-3.3M84.2 59l-16.4-3.3m19.1-10.1l-16.4-3.3m19.1-10.2l-16.4-3.3"/><rect width="1.4" height="1.92" x="83.2" y="47.2" fill="#fff" rx=".2" transform="rotate(11.5 84.105 48.21)"/><rect width="1.4" height="1.92" x="81.7" y="54.8" fill="#fff" rx=".2" transform="rotate(11.5 82.372 55.908)"/><rect width="1.4" height="1.92" x="82.4" y="51.1" fill="#fff" rx=".2" transform="rotate(11.5 83.512 52.283)"/><rect width="1.4" height="1.92" x="77.7" y="74.3" fill="#fff" rx=".2" transform="rotate(11.5 78.314 75.377)"/><rect width="1.4" height="1.92" x="76.1" y="82" fill="#fff" rx=".2" transform="rotate(11.5 77.077 83.026)"/><rect width="1.4" height="1.92" x="76.9" y="78.2" fill="#fff" rx=".2" transform="rotate(11.5 77.72 79.45)"/><rect width="1.4" height="1.92" x="71.4" y="44.8" fill="#fff" rx=".2" transform="rotate(11.5 72.334 45.884)"/><rect width="1.4" height="1.92" x="69.8" y="52.4" fill="#fff" rx=".2" transform="rotate(11.5 70.602 53.583)"/><rect width="1.4" height="1.92" x="70.6" y="48.7" fill="#fff" rx=".2" transform="rotate(11.5 71.195 49.51)"/><rect width="1.4" height="1.92" x="88.9" y="20" fill="#fff" rx=".2" transform="rotate(11.5 89.896 21.043)"/><rect width="1.4" height="1.92" x="87.3" y="27.7" fill="#fff" rx=".2" transform="rotate(11.5 88.164 28.741)"/><rect width="1.4" height="1.92" x="88.1" y="23.9" fill="#fff" rx=".2" transform="rotate(11.5 88.644 24.936)"/><rect width="1.4" height="1.92" x="77.1" y="17.6" fill="#fff" rx=".2" transform="rotate(11.5 78.126 18.717)"/><rect width="1.4" height="1.92" x="75.5" y="25.2" fill="#fff" rx=".2" transform="rotate(11.5 76.393 26.415)"/><rect width="1.4" height="1.92" x="76.3" y="21.5" fill="#fff" rx=".2" transform="rotate(11.5 76.986 22.343)"/><path fill="#fff" d="M30.2 66.9l1.5 10 19.9-3L50 63.8zM53.3 55l14.6-2.2h.1l3.6 23.5a3.2 3.2 0 0 1-2.6 3.5l-51.7 7.9a3.3 3.3 0 0 1-3.6-2.7l-3.6-23.4L20.2 60l18.4-2.8z"/><path fill="#fdf374" d="M30.123 66.89l19.869-3.04 1.535 10.033-19.869 3.04z"/><path fill="#f8bbc6" d="M66.4 42.1L68 52.7l-.1.1-11.8-9.2 10.3-1.5z"/><path fill="#fff" d="M56.1 43.6l11.8 9.2L53.3 55l-12-9.1 14.8-2.3zm4.7-21.5l3 8.9-9.4 3.9v-.2l6.1-12.5.3-.1z"/><path fill="#f8bbc6" d="M59.7 19.1l1.1 3-.3.1-6.1 12.5v.2L39.6 41l7.9-16.8 12.2-5.1zM27.2 48.5l-.5-.4 2.5-.4 12.1-1.8 12 9.1-14.7 2.2-11.4-8.7z"/><path fill="#fff" d="M47.5 24.2L39.6 41l-11.9 5-.1.1-1.2-1.1.1-.2 6.8-14.7 14.2-5.9zm-8.9 33L20.2 60l7-11.5 11.4 8.7z"/><path fill="#f8bbc6" d="M33.3 30.1l-6.8 14.7-.1.2-8.4-8.3-.1-.2.6-.1 14.8-6.3z"/><path fill="#fff" d="M26.7 48.1L8.5 50.9 6.6 38.2l11.3-1.7.1.2 8.4 8.3 1.2 1.1 1.6 1.6-2.5.4z"/><path fill="#f8bbc6" d="M27.2 48.5l-7 11.5-10.1 1.6-1.6-10.7 18.2-2.8.5.4z"/><path fill="none" stroke="#000" stroke-miterlimit="10" stroke-width="2" d="M33.4 30.1h-.1l-6.8 14.7m21-20.6L39.6 41m20.9-18.8l-6.1 12.5M10.1 61.6L13.7 85a3.3 3.3 0 0 0 3.6 2.7L69 79.8a3.2 3.2 0 0 0 2.6-3.6L68 52.7l-1.6-10.6-10.3 1.5-14.8 2.3-12.1 1.8-2.5.4-18.2 2.8z"/><path fill="none" stroke="#000" stroke-miterlimit="10" stroke-width="2" d="M9.8 61.6h.3L20.2 60l18.4-2.8L53.3 55l14.6-2.2m-40.5-4.7l-.2.4-7 11.5M56 43.6h.1l11.8 9.2"/><path fill="none" stroke="#000" stroke-miterlimit="10" stroke-width="2" d="M41.3 45.9l12 9.1.1.1m-26.7-7l.5.4 11.4 8.7M8.5 50.9L6.6 38.2l11.3-1.7.6-.1 14.8-6.3 14.2-5.9 12.2-5.1 1.1 3 3 8.9-9.4 3.9L39.6 41l-11.9 5"/><path fill="none" stroke="#000" stroke-linecap="round" stroke-miterlimit="10" stroke-width="2" d="M50 63.8l-19.8 3.1m21.4 7l-19.9 3"/><path fill="none" stroke="#000" stroke-miterlimit="10" stroke-width="2" d="M51.6 73.9L50 63.8M31.7 76.9l-1.5-10M18 36.7l8.4 8.3 1.2 1.1 1.6 1.6"/></symbol><symbol id="illustration" viewBox="0 0 100 100"><path fill="#bfbfbf" stroke="#000" stroke-linejoin="round" stroke-width="2" d="M68 57.1l-8.5 15h-19l-8.5-15 18-31.9 18 31.9z"/><path fill="#f8bbc6" stroke="#000" stroke-linejoin="round" stroke-width="2" d="M64.5 76.8a4.7 4.7 0 0 1-4.7 4.6H40.2a4.7 4.7 0 1 1 0-9.3h19.6a4.7 4.7 0 0 1 4.7 4.7z"/><path fill="#b2f1ee" stroke="#000" stroke-linejoin="round" stroke-width="2" d="M40 81.4h20.1v9.66H40z"/><circle cx="50" cy="56.2" r="4.9" fill="#fff" stroke="#000" stroke-linejoin="round" stroke-width="2"/><path fill="none" stroke="#000" stroke-linejoin="round" stroke-width="2" d="M50 25.2v26.1m-37.1-1.1a37.3 37.3 0 0 1 74.5 0"/><path fill="#fff" stroke="#000" stroke-linejoin="round" stroke-width="2" d="M7.5 44.5h10v9.95h-10zm75 0h10v9.95h-10z"/><circle cx="11.7" cy="13" r="4.9" fill="#b8e5f9" stroke="#000" stroke-linejoin="round" stroke-width="2"/><circle cx="88.3" cy="13" r="4.9" fill="#b8e5f9" stroke="#000" stroke-linejoin="round" stroke-width="2"/><path fill="none" stroke="#000" stroke-linejoin="round" stroke-width="2" d="M84.4 13H16.3"/><path fill="#fff" stroke="#000" stroke-linejoin="round" stroke-width="2" d="M45 8.4h10v10.01H45z"/></symbol><symbol id="photo-manip" viewBox="0 0 100 100"><path fill="none" stroke="#000" stroke-miterlimit="10" stroke-width="2" d="M54.55 27.45l43.283 9.436-10.766 49.38-43.283-9.437z"/><path fill="#fdf374" stroke="#000" stroke-miterlimit="10" stroke-width="2" d="M58.087 33.145l34.294 7.477-7.483 34.323-34.295-7.477z"/><rect width="63" height="39.64" x="5.2" y="19" fill="#f8bbc6" stroke="#000" stroke-miterlimit="10" stroke-width="2" rx="2.4" transform="rotate(-11.5 37.94 39.137)"/><circle cx="37.1" cy="39.1" r="13" fill="#b2f1ee" stroke="#000" stroke-miterlimit="10" stroke-width="2"/><circle cx="37.1" cy="39.1" r="7.1" fill="#fff" stroke="#000" stroke-miterlimit="10" stroke-width="2"/><path fill="#fff" stroke="#000" stroke-miterlimit="10" stroke-width="2" d="M5.256 21.467l12.017-2.62.831 3.81-12.018 2.62zm48.921-1.265l5.667-1.236 1.246 5.716-5.667 1.236z"/><path fill="#b2f1ee" stroke="#000" stroke-miterlimit="10" stroke-width="2" d="M22.5 15l17.1-3.7 4 5.8-22.3 4.8 1.2-6.9z"/><path fill="#fff" stroke="#000" stroke-miterlimit="10" stroke-width="2" d="M25.5 86.5l-3.3-32.4 26.2 19.1L37 74.4l6.7 11.4-4.6 2.9-6.6-11.4-7 9.2z"/></symbol><symbol id="pin" viewBox="0 0 100 100"><path fill="#f490a3" d="M50 0a37.5 37.5 0 0 0-37.5 37.5c0 27.7 34.6 60.5 36.1 61.9a1.9 1.9 0 0 0 2.8 0c1.5-1.4 36.1-34.2 36.1-61.9A37.5 37.5 0 0 0 50 0zm0 58.3a20.8 20.8 0 1 1 20.8-20.8A20.8 20.8 0 0 1 50 58.3z"/></symbol><symbol id="ui-ux" viewBox="0 0 100 100"><path fill="none" stroke="#bfbfbf" stroke-miterlimit="10" stroke-width="2.1" d="M97 7.5h-4.2"/><path fill="none" stroke="#bfbfbf" stroke-dasharray="8.38 8.38" stroke-miterlimit="10" stroke-width="2.1" d="M84.5 8.3a57.5 57.5 0 0 0-27.1 12c-14.8 11.8-18 21.4-40.2 28.1"/><path fill="none" stroke="#bfbfbf" stroke-miterlimit="10" stroke-width="2.1" d="M13.2 49.5l-4.1 1M6.3 92.3a35.3 35.3 0 0 0 4.2.2"/><path fill="none" stroke="#bfbfbf" stroke-dasharray="8.44 8.44" stroke-miterlimit="10" stroke-width="2.1" d="M18.9 92.2a74.7 74.7 0 0 0 38.3-14.6c6.7-5.1 11.7-9.9 16.5-14.3"/><path fill="none" stroke="#bfbfbf" stroke-miterlimit="10" stroke-width="2.1" d="M76.8 60.5l3.2-2.7"/><path fill="#fff" d="M57 27.4l3.3 24.2a2 2 0 0 1-1.8 2.2l-43.6 6a2 2 0 0 1-2.3-1.7L9.3 34a2.1 2.1 0 0 1 1.8-2.3l43.6-6a2.1 2.1 0 0 1 2.3 1.7z"/><path fill="#f8bbc6" d="M49.2 66.6l1.9 5.8L27 75.7l.4-6.1 21.8-3z"/><path fill="#b8e5f9" d="M49.2 66.6l-21.8 3-.4 6.1 24.1-3.3zm-41.3-.9l59-8.1 5.8 9.7a4.5 4.5 0 0 0 .1.8 1.9 1.9 0 0 1-1.6 1.6L7 78.5a1.9 1.9 0 0 1-2.1-1.4c-.1-.1 0-.3 0-.4zm52.4-14.1L57 27.4a2.1 2.1 0 0 0-2.3-1.7l-43.6 6A2.1 2.1 0 0 0 9.3 34l3.3 24.1a2 2 0 0 0 2.3 1.7l43.6-6a2 2 0 0 0 1.8-2.2zM62 22l4.8 35.4-58.9 8.1L3 30a2.1 2.1 0 0 1 1.7-2.2l55.1-7.5A2 2 0 0 1 62 22z"/><path fill="#76d4f4" d="M73.3 70.9c.3 2.3-2.6 2.7-2.6 2.7L7.9 82.2a2.2 2.2 0 0 1-2.6-1.9L4.8 77h.1A1.9 1.9 0 0 0 7 78.5l64.2-8.8a1.9 1.9 0 0 0 1.6-1.6 25 25 0 0 1 .5 2.8z"/><path fill="none" stroke="#000" stroke-miterlimit="10" stroke-width="2.1" d="M66.8 57.4L7.9 65.5 3 30a2.1 2.1 0 0 1 1.7-2.2l55.1-7.5A2 2 0 0 1 62 22zm5.9 9.9l-5.8-9.7-59 8.1-3 10.9c0 .1-.1.3 0 .4A1.9 1.9 0 0 0 7 78.5l64.2-8.8a1.9 1.9 0 0 0 1.6-1.6c0-.1.1-.2.1-.3s-.1-.3-.2-.5z"/><path fill="none" stroke="#000" stroke-miterlimit="10" stroke-width="2.1" d="M58.5 53.8l-43.6 6a2 2 0 0 1-2.3-1.7L9.3 34a2.1 2.1 0 0 1 1.8-2.3l43.6-6a2.1 2.1 0 0 1 2.3 1.7l3.3 24.2a2 2 0 0 1-1.8 2.2zm14.2 13.5a4.5 4.5 0 0 0 .1.8 25 25 0 0 1 .5 2.8c.3 2.3-2.6 2.7-2.6 2.7L7.9 82.2a2.2 2.2 0 0 1-2.6-1.9L4.8 77"/><path fill="none" stroke="#000" stroke-miterlimit="10" stroke-width="2.1" d="M51.1 72.4L27 75.7l.4-6.1 21.8-3 1.9 5.8z"/><path d="M95.2 23.5a4.1 4.1 0 0 1 .9 2.8l-3.5 42.8a4 4 0 0 1-3.9 3.6h-.3L67 70.9a4.2 4.2 0 0 1-2.7-1.4 4.1 4.1 0 0 1-.9-2.8L66.9 24a3.9 3.9 0 0 1 3.9-3.6h.3l21.4 1.7a4.2 4.2 0 0 1 2.7 1.4zM94 26.2a1.9 1.9 0 0 0-1.7-2l-21.4-1.7h-.1a1.8 1.8 0 0 0-1.8 1.6l-3.5 42.8a1.8 1.8 0 0 0 1.7 1.9l21.4 1.8h.1a1.9 1.9 0 0 0 1.8-1.7z"/><path fill="#fdf374" d="M92.3 24.2a1.9 1.9 0 0 1 1.7 2l-3.5 42.7a1.9 1.9 0 0 1-1.8 1.7h-.1l-21.4-1.8a1.8 1.8 0 0 1-1.7-1.9L69 24.1a1.8 1.8 0 0 1 1.8-1.6h.1zm-3.8 40.3l3-36.9L71.2 26l-3 36.9z"/><path d="M91.5 27.6l-3 36.9-20.3-1.6 3-36.9zm-4.9 34.6l2.6-32.7-16.1-1.3-2.6 32.7z"/><path fill="#fff" d="M89.2 29.5l-2.6 32.7-16.1-1.3 2.6-32.7 16.1 1.3z"/><path fill="none" stroke="#000" stroke-linecap="round" stroke-miterlimit="10" stroke-width="2.1" d="M80.5 66.8l-5.3-.4"/></symbol></svg>