<svg xmlns="http://www.w3.org/2000/svg"><symbol id="photo-manip" viewBox="0 0 100 100"><path fill="none" stroke="#000" stroke-miterlimit="10" stroke-width="2" d="M54.55 27.45l43.283 9.436-10.766 49.38-43.283-9.437z"/><path fill="#fdf374" stroke="#000" stroke-miterlimit="10" stroke-width="2" d="M58.087 33.145l34.294 7.477-7.483 34.323-34.295-7.477z"/><rect width="63" height="39.64" x="5.2" y="19" fill="#f8bbc6" stroke="#000" stroke-miterlimit="10" stroke-width="2" rx="2.4" transform="rotate(-11.5 37.94 39.137)"/><circle cx="37.1" cy="39.1" r="13" fill="#b2f1ee" stroke="#000" stroke-miterlimit="10" stroke-width="2"/><circle cx="37.1" cy="39.1" r="7.1" fill="#fff" stroke="#000" stroke-miterlimit="10" stroke-width="2"/><path fill="#fff" stroke="#000" stroke-miterlimit="10" stroke-width="2" d="M5.256 21.467l12.017-2.62.831 3.81-12.018 2.62zm48.921-1.265l5.667-1.236 1.246 5.716-5.667 1.236z"/><path fill="#b2f1ee" stroke="#000" stroke-miterlimit="10" stroke-width="2" d="M22.5 15l17.1-3.7 4 5.8-22.3 4.8 1.2-6.9z"/><path fill="#fff" stroke="#000" stroke-miterlimit="10" stroke-width="2" d="M25.5 86.5l-3.3-32.4 26.2 19.1L37 74.4l6.7 11.4-4.6 2.9-6.6-11.4-7 9.2z"/></symbol><symbol id="illustration" viewBox="0 0 100 100"><path fill="#f8bbc6" d="M83.4 15a4.9 4.9 0 1 1 4.9 4.9 4.9 4.9 0 0 1-4.9-4.9z"/><path fill="#fff" d="M86.9 46.5h5.6v10h-10v-10h4.4z"/><path fill="#b2f1ee" d="M60 74.1v15.7H40V74.1h20z"/><path fill="#fff" d="M55 15.4v5H45v-5a43.8 43.8 0 0 1 5.1-.4 26.3 26.3 0 0 1 4.9.4z"/><path fill="#fff" d="M55 15v.4a26.3 26.3 0 0 0-4.9-.4z"/><path fill="#fff" d="M55 10.4V15H45v-4.6h10zm-5 43.9a3.9 3.9 0 0 1 4 3.9 4 4 0 0 1-8 0 3.9 3.9 0 0 1 4-3.9z"/><path fill="#bfbfbf" d="M50 27.3l17 31.8-7.5 15h-19l-7.5-15zm0 27a3.9 3.9 0 0 0-4 3.9 4 4 0 0 0 8 0 3.9 3.9 0 0 0-4-3.9z"/><path fill="#fff" d="M45 15h5.1a43.8 43.8 0 0 0-5.1.4z"/><path fill="#f8bbc6" d="M16.6 15a4.9 4.9 0 1 1-4.9-4.8 4.9 4.9 0 0 1 4.9 4.8z"/><path fill="#fff" d="M17.5 56.5h-10v-10h10v10z"/><path fill="none" stroke="#000" stroke-linejoin="round" stroke-width="2" d="M40.5 74.1l-7.5-15 17-31.8 17 31.8-7.5 15m0 0h.5v15.7H40V74.1h19.5z"/><path fill="none" stroke="#000" stroke-linejoin="round" stroke-width="2" d="M54 58.2a4 4 0 0 0-8 0 4 4 0 0 0 8 0zm-4-30.4v26.1m5-38.5a37.1 37.1 0 0 1 31.9 31.1m-73.6 0A37.2 37.2 0 0 1 45 15.4M17.5 56.5h-10v-10h10v10zm75 0h-10v-10h10v10zM16.6 15a4.9 4.9 0 1 0-4.9 4.9 4.9 4.9 0 0 0 4.9-4.9zm76.5 0a4.9 4.9 0 1 0-4.8 4.9 4.9 4.9 0 0 0 4.8-4.9zM45 15H16.3m68.1 0H55m0 .3v5.1H45v-10h10v4.9z"/></symbol><symbol id="ui-ux" viewBox="0 0 100 100"><path fill="none" stroke="#bfbfbf" stroke-miterlimit="10" stroke-width="2.1" d="M97 7.5h-4.2"/><path fill="none" stroke="#bfbfbf" stroke-dasharray="8.38 8.38" stroke-miterlimit="10" stroke-width="2.1" d="M84.5 8.3a57.5 57.5 0 0 0-27.1 12c-14.8 11.8-18 21.4-40.2 28.1"/><path fill="none" stroke="#bfbfbf" stroke-miterlimit="10" stroke-width="2.1" d="M13.2 49.5l-4.1 1M6.3 92.3a35.3 35.3 0 0 0 4.2.2"/><path fill="none" stroke="#bfbfbf" stroke-dasharray="8.44 8.44" stroke-miterlimit="10" stroke-width="2.1" d="M18.9 92.2a74.7 74.7 0 0 0 38.3-14.6c6.7-5.1 11.7-9.9 16.5-14.3"/><path fill="none" stroke="#bfbfbf" stroke-miterlimit="10" stroke-width="2.1" d="M76.8 60.5l3.2-2.7"/><path fill="#fff" d="M57 27.4l3.3 24.2a2 2 0 0 1-1.8 2.2l-43.6 6a2 2 0 0 1-2.3-1.7L9.3 34a2.1 2.1 0 0 1 1.8-2.3l43.6-6a2.1 2.1 0 0 1 2.3 1.7z"/><path fill="#f8bbc6" d="M49.2 66.6l1.9 5.8L27 75.7l.4-6.1 21.8-3z"/><path fill="#b8e5f9" d="M49.2 66.6l-21.8 3-.4 6.1 24.1-3.3zm-41.3-.9l59-8.1 5.8 9.7a4.5 4.5 0 0 0 .1.8 1.9 1.9 0 0 1-1.6 1.6L7 78.5a1.9 1.9 0 0 1-2.1-1.4c-.1-.1 0-.3 0-.4zm52.4-14.1L57 27.4a2.1 2.1 0 0 0-2.3-1.7l-43.6 6A2.1 2.1 0 0 0 9.3 34l3.3 24.1a2 2 0 0 0 2.3 1.7l43.6-6a2 2 0 0 0 1.8-2.2zM62 22l4.8 35.4-58.9 8.1L3 30a2.1 2.1 0 0 1 1.7-2.2l55.1-7.5A2 2 0 0 1 62 22z"/><path fill="#76d4f4" d="M73.3 70.9c.3 2.3-2.6 2.7-2.6 2.7L7.9 82.2a2.2 2.2 0 0 1-2.6-1.9L4.8 77h.1A1.9 1.9 0 0 0 7 78.5l64.2-8.8a1.9 1.9 0 0 0 1.6-1.6 25 25 0 0 1 .5 2.8z"/><path fill="none" stroke="#000" stroke-miterlimit="10" stroke-width="2.1" d="M66.8 57.4L7.9 65.5 3 30a2.1 2.1 0 0 1 1.7-2.2l55.1-7.5A2 2 0 0 1 62 22zm5.9 9.9l-5.8-9.7-59 8.1-3 10.9c0 .1-.1.3 0 .4A1.9 1.9 0 0 0 7 78.5l64.2-8.8a1.9 1.9 0 0 0 1.6-1.6c0-.1.1-.2.1-.3s-.1-.3-.2-.5z"/><path fill="none" stroke="#000" stroke-miterlimit="10" stroke-width="2.1" d="M58.5 53.8l-43.6 6a2 2 0 0 1-2.3-1.7L9.3 34a2.1 2.1 0 0 1 1.8-2.3l43.6-6a2.1 2.1 0 0 1 2.3 1.7l3.3 24.2a2 2 0 0 1-1.8 2.2zm14.2 13.5a4.5 4.5 0 0 0 .1.8 25 25 0 0 1 .5 2.8c.3 2.3-2.6 2.7-2.6 2.7L7.9 82.2a2.2 2.2 0 0 1-2.6-1.9L4.8 77"/><path fill="none" stroke="#000" stroke-miterlimit="10" stroke-width="2.1" d="M51.1 72.4L27 75.7l.4-6.1 21.8-3 1.9 5.8z"/><path d="M95.2 23.5a4.1 4.1 0 0 1 .9 2.8l-3.5 42.8a4 4 0 0 1-3.9 3.6h-.3L67 70.9a4.2 4.2 0 0 1-2.7-1.4 4.1 4.1 0 0 1-.9-2.8L66.9 24a3.9 3.9 0 0 1 3.9-3.6h.3l21.4 1.7a4.2 4.2 0 0 1 2.7 1.4zM94 26.2a1.9 1.9 0 0 0-1.7-2l-21.4-1.7h-.1a1.8 1.8 0 0 0-1.8 1.6l-3.5 42.8a1.8 1.8 0 0 0 1.7 1.9l21.4 1.8h.1a1.9 1.9 0 0 0 1.8-1.7z"/><path fill="#fdf374" d="M92.3 24.2a1.9 1.9 0 0 1 1.7 2l-3.5 42.7a1.9 1.9 0 0 1-1.8 1.7h-.1l-21.4-1.8a1.8 1.8 0 0 1-1.7-1.9L69 24.1a1.8 1.8 0 0 1 1.8-1.6h.1zm-3.8 40.3l3-36.9L71.2 26l-3 36.9z"/><path d="M91.5 27.6l-3 36.9-20.3-1.6 3-36.9zm-4.9 34.6l2.6-32.7-16.1-1.3-2.6 32.7z"/><path fill="#fff" d="M89.2 29.5l-2.6 32.7-16.1-1.3 2.6-32.7 16.1 1.3z"/><path fill="none" stroke="#000" stroke-linecap="round" stroke-miterlimit="10" stroke-width="2.1" d="M80.5 66.8l-5.3-.4"/></symbol><symbol id="motion" viewBox="0 0 100 100"><path fill="#b2f1ee" d="M93.1 16.8a.9.9 0 0 1 .7 1.1l-2.5 12.7h-.2l-16.3-3.3h-.3l2.6-12.8a.9.9 0 0 1 1.1-.7zm-4.6 27.3l-2.7 13.4h-.1l-16.3-3.3h-.3l2.7-13.5.3.1 16.3 3.3h.1zM83.1 71l-2.5 12.7a.9.9 0 0 1-1.1.7l-15-3a.9.9 0 0 1-.7-1.1l2.6-12.7h.2L83 71z"/><path fill="none" stroke="#000" stroke-miterlimit="10" stroke-width="2" d="M83.1 71l-2.5 12.7a.9.9 0 0 1-1.1.7l-15-3a.9.9 0 0 1-.7-1.1l2.6-12.7 2.7-13.4 2.7-13.5 2.7-13.4 2.6-12.8a.9.9 0 0 1 1.1-.7l14.9 3a.9.9 0 0 1 .7 1.1l-2.5 12.7-2.7 13.5-2.8 13.4zm-.1 0l-16.4-3.3m19.1-10.2l-16.3-3.3m19-10.1l-16.3-3.3m19-10.2l-16.3-3.3"/><rect width="1.4" height="1.92" x="87.6" y="32.3" fill="#b2f1ee" rx=".2" transform="rotate(11.5 88.614 33.21)"/><rect width="1.4" height="1.92" x="86" y="40" fill="#b2f1ee" rx=".2" transform="rotate(11.5 86.88 40.908)"/><rect width="1.4" height="1.92" x="86.8" y="36.2" fill="#b2f1ee" rx=".2" transform="rotate(11.5 87.524 37.333)"/><rect width="1.4" height="1.92" x="75.7" y="29.9" fill="#b2f1ee" rx=".2" transform="rotate(11.5 76.346 30.934)"/><rect width="1.4" height="1.92" x="74.2" y="37.5" fill="#b2f1ee" rx=".2" transform="rotate(11.5 75.11 38.583)"/><rect width="1.4" height="1.92" x="74.9" y="33.8" fill="#b2f1ee" rx=".2" transform="rotate(11.5 75.753 35.007)"/><rect width="1.4" height="1.92" x="82.1" y="59.1" fill="#b2f1ee" rx=".2" transform="rotate(11.5 82.822 60.377)"/><rect width="1.4" height="1.92" x="80.6" y="66.7" fill="#b2f1ee" rx=".2" transform="rotate(11.5 81.586 68.026)"/><rect width="1.4" height="1.92" x="81.3" y="63" fill="#b2f1ee" rx=".2" transform="rotate(11.5 82.18 63.953)"/><rect width="1.4" height="1.92" x="70.3" y="56.7" fill="#b2f1ee" rx=".2" transform="rotate(11.5 71.002 57.555)"/><rect width="1.4" height="1.92" x="68.7" y="64.3" fill="#b2f1ee" rx=".2" transform="rotate(11.5 69.765 65.203)"/><rect width="1.4" height="1.92" x="69.5" y="60.6" fill="#b2f1ee" rx=".2" transform="rotate(11.5 70.408 61.627)"/><path fill="#f8bbc6" d="M42.9 44.4l11.9 9.1-14.6 2.2-11.9-9.1 14.6-2.2z"/><path fill="#fff" d="M57.6 42.1l11.9 9.2-14.7 2.2-11.9-9.1 14.7-2.3z"/><path fill="#f8bbc6" d="M10.1 49.4L6.7 41a1.7 1.7 0 0 1 .1-1.4l13 5.9z"/><path fill="#fff" d="M47.3 23.1l13.5 6-13.4 5.4-13.7-6.2 13.6-5.4v.2z"/><path fill="#f8bbc6" d="M68 40.6l1.6 10.6-.1.1-11.9-9.2L68 40.6z"/><path fill="#fff" d="M19.8 45.5l-13-5.9a1.6 1.6 0 0 1 .9-.9l12.2-4.9L33.6 40z"/><path fill="#f8bbc6" d="M25.7 57.8v.1l-14 2.2-1.6-10.7 3.9-.6 11.7 9z"/><path fill="#fff" d="M54.8 53.5l14.7-2.2h.1l3.6 23.5a3.2 3.2 0 0 1-2.6 3.6l-51.8 7.8a3.1 3.1 0 0 1-3.5-2.7l-3.6-23.4 14-2.2 14.5-2.2zm-1.7 18.9l-1.5-10.1-19.9 3.1 1.5 10z"/><path fill="#f8bbc6" d="M19.9 33.8l13.8-5.5 13.7 6.2L33.6 40l-13.7-6.2z"/><path fill="#fdf374" d="M31.778 65.365l19.868-3.04 1.536 10.033-19.87 3.04z"/><path fill="#f8bbc6" d="M58.8 18.3a1.8 1.8 0 0 1 2.3 1l3.4 8.4-3.7 1.5-13.5-6.1v-.2z"/><path fill="none" stroke="#000" stroke-miterlimit="10" stroke-width="2" d="M11.7 60.1l3.6 23.4a3.1 3.1 0 0 0 3.5 2.7l51.8-7.9a3.2 3.2 0 0 0 2.6-3.6l-3.6-23.5L68 40.6l-10.4 1.5-14.7 2.3-14.6 2.2L14 48.8l-3.9.6z"/><path fill="none" stroke="#000" stroke-miterlimit="10" stroke-width="2" d="M11.3 60.1h.4l14-2.2 14.5-2.2 14.6-2.2 14.7-2.2m-11.9-9.2l11.9 9.2"/><path fill="none" stroke="#000" stroke-miterlimit="10" stroke-width="2" d="M42.8 44.4h.1l11.9 9.1.1.1m-26.7-7h.1l11.9 9.1m-26.4-7l.2.1 11.7 9m35.1-28.6l3.7-1.5-3.4-8.4a1.8 1.8 0 0 0-2.3-1l-11.5 4.6-13.6 5.4-13.8 5.5-12.2 4.9a1.6 1.6 0 0 0-.9.9 1.7 1.7 0 0 0-.1 1.4l3.4 8.4 9.7-3.9L33.6 40l13.8-5.5z"/><path fill="none" stroke="#000" stroke-miterlimit="10" stroke-width="2" d="M19.8 45.5l-13-5.9-.7-.3m27.6.7h-.1l-13.7-6.2h-.1m27.6.7l-13.7-6.2m27.3.9l-.2-.1-13.5-6"/><path fill="none" stroke="#000" stroke-linecap="round" stroke-miterlimit="10" stroke-width="2" d="M51.6 62.3l-19.9 3.1m21.4 7l-19.9 3"/><path fill="none" stroke="#000" stroke-miterlimit="10" stroke-width="2" d="M53.1 72.4l-1.5-10.1M33.2 75.4l-1.5-10"/></symbol><symbol id="pin" viewBox="0 0 100 100"><path fill="#f490a3" d="M50 0a37.5 37.5 0 0 0-37.5 37.5c0 27.7 34.6 60.5 36.1 61.9a1.9 1.9 0 0 0 2.8 0c1.5-1.4 36.1-34.2 36.1-61.9A37.5 37.5 0 0 0 50 0zm0 58.3a20.8 20.8 0 1 1 20.8-20.8A20.8 20.8 0 0 1 50 58.3z"/></symbol><symbol id="branding" viewBox="0 0 100 100"><path fill="#fff" stroke="#000" stroke-miterlimit="10" stroke-width="2" d="M13.1 44.2h28.8v15.89H13.1z"/><circle cx="20.9" cy="52.1" r="3.9" fill="#b8e5f9" stroke="#000" stroke-miterlimit="10" stroke-width="2"/><path fill="#fff" stroke="#000" stroke-linecap="round" stroke-miterlimit="10" stroke-width="2" d="M28.7 50.2h8.8M28.7 54h8.8"/><path fill="#fff" stroke="#000" stroke-miterlimit="10" stroke-width="2" d="M46.7 16.6h49.6v66.67H46.7z"/><circle cx="56" cy="26" r="4.3" fill="#b8e5f9" stroke="#000" stroke-miterlimit="10" stroke-width="2"/><path fill="#fff" stroke="#000" stroke-linecap="round" stroke-miterlimit="10" stroke-width="2" d="M77.2 21.8h13.7m-13.7 3.8h13.7m-38.7 13h36.3m-36.3 3.8h36.3m-36.3 4.4h36.3m-36.3 3.7h36.3m-36.3 3.9h36.3m-36.3 3.7h22.5"/><path fill="#fff" stroke="#000" stroke-miterlimit="10" stroke-width="2" d="M3.7 83.3V65.4h38.34v17.9z"/><circle cx="11.9" cy="73.9" r="4.3" fill="#b8e5f9" stroke="#000" stroke-miterlimit="10" stroke-width="2"/><path fill="#fff" stroke="#000" stroke-linecap="round" stroke-miterlimit="10" stroke-width="2" d="M28.3 69.6h9.8m-9.8 3.8h9.8"/></symbol><symbol id="digital" viewBox="0 0 100 100"><path fill="#bfbfbf" d="M97.6 18.4v4.5H2.9v-4.5h94.7z"/><path fill="#b8e5f9" d="M91.1 29v46.5L79.5 52.3 91.1 29z"/><path fill="#b8e5f9" d="M91.1 29L79.5 52.3 67.9 29h23.2zM79.5 52.3l11.6 23.2H67.9l11.6-23.2z"/><path fill="#b8e5f9" d="M79.5 52.3L67.9 75.5V29l11.6 23.3z"/><path fill="#f8bbc6" d="M61.4 29v21.5L34.9 39.8 61.4 29z"/><path fill="#f8bbc6" d="M61.4 29L34.9 39.8 8.4 29h53zm0 21.5h-53l26.5-10.7 26.5 10.7z"/><path fill="#f8bbc6" d="M34.9 39.8L8.4 50.5V29l26.5 10.8z"/><path fill="none" stroke="#000" stroke-miterlimit="10" stroke-width="2" d="M97.6 22.9v58.7H2.9V18.4h94.7v4.5zm-.2 0H2.5"/><path fill="none" stroke="#000" stroke-miterlimit="10" stroke-width="2" d="M67.9 29h23.3v46.53H67.9z"/><path fill="none" stroke="#000" stroke-miterlimit="10" stroke-width="2" d="M67.9 75.5l11.6-23.2L91.1 29"/><path fill="none" stroke="#000" stroke-miterlimit="10" stroke-width="2" d="M91.1 75.5L79.5 52.3 67.9 29M8.4 29h53v21.51h-53z"/><path fill="none" stroke="#000" stroke-miterlimit="10" stroke-width="2" d="M8.4 50.5l26.5-10.7L61.4 29"/><path fill="none" stroke="#000" stroke-miterlimit="10" stroke-width="2" d="M61.4 50.5L34.9 39.8 8.4 29m-.2 28.2h54.1M8.2 62.1h54.1M8.2 66.4h54.1"/></symbol></svg>