<svg id="Layer_1" data-name="Layer 1" xmlns="http://www.w3.org/2000/svg" width="523.9" height="523.9" viewBox="0 0 523.9 523.9"><title>logo</title><path d="M262,0C117.3,0,0,117.3,0,262S117.3,523.9,262,523.9,523.9,406.6,523.9,262,406.6,0,262,0Zm80,373.4a22.6,22.6,0,0,1-22.6,22.3h-.2a22.6,22.6,0,0,1-22.4-22.8,433.6,433.6,0,0,0-3-50.6c-4.2-34.4-11.4-48.1-14.7-51.4a7.3,7.3,0,0,0-4.6,2.6c-2.9,3-9.9,12.7-13.5,39.4a263.6,263.6,0,0,0-2.2,28.1h0c0,3.6-.1,9.2,0,13.1h0c.4,11.1.3,18.5.3,19.1a22.5,22.5,0,0,1-22.6,22.3h-.2A22.4,22.4,0,0,1,214,372.9a432.3,432.3,0,0,0-3-50.5c-4.1-34.1-11.3-48-14.5-51.5a8.8,8.8,0,0,0-5.2,3.2c-14.4,15.8-17.5,66.4-15.1,97.3a14.7,14.7,0,0,1,0,2.1v.7c-.2,11.9-5.4,17.8-5.7,18.1h0a22.6,22.6,0,0,1-13.4,8,20.9,20.9,0,0,1-4.3.4,22.5,22.5,0,0,1-22.1-18.3L105.2,250.8a22.6,22.6,0,0,1,44.3-8.6l1.9,10a70.5,70.5,0,0,1,6.5-8.5c10.5-11.6,24.1-17.8,39.3-18,11.5-.2,22.1,4.2,30.7,12.8a56.5,56.5,0,0,1,8.3,10.6,55.7,55.7,0,0,1,5.8-6.9,52.6,52.6,0,0,1,38.4-16.5c11.4,0,22,4.5,30.6,13.2,14.4,14.6,23.6,41.5,28.1,82.2A479.5,479.5,0,0,1,342,373.4Zm8.5-151.8c-1.9-5.3-3.6-10.6-5.7-15.9-.9-2.6-1.9-5.2-2.9-7.8l-3.1-7.9c-.5-1.3-1-2.6-1.6-3.9l-1.6-3.9-3.3-7.7-6.9-15.4-.3-.7a25.1,25.1,0,0,1,45.8-20.5,6.9,6.9,0,0,1,.5,1.3l6.6,16.9,3.1,8.6,1.5,4.2,1.5,4.3,2.9,8.7,2.7,8.7c1.9,5.7,3.5,11.6,5.2,17.4,3.2,11.8,6.1,23.6,8.6,35.6,1.2,6.1,2.3,12.1,3.3,18.3.5,3,.9,6.1,1.3,9.3l.6,4.7.3,2.5.2,2.8a21.3,21.3,0,0,1-42.3,5.3l-.2-1.5-.5-3.4c-.2-1.3-.5-2.6-.7-3.9s-1-5.3-1.6-8c-1.1-5.3-2.5-10.7-3.8-16.1C357.3,242.9,354,232.2,350.5,221.6Zm60.5,166a27.8,27.8,0,0,1-19.6,8.1c-6.8,0-14.8-2.4-19.6-6.5s-8.2-12.7-8.2-21.3a27.2,27.2,0,0,1,7.7-19.1,27.6,27.6,0,0,1,20.1-8.6c8.2,0,15.5,1.8,20.6,7.4s7.2,13.2,7.2,20.3A28.1,28.1,0,0,1,411,387.6Z" fill="#f8bbc6"/></svg>