<svg xmlns="http://www.w3.org/2000/svg"><symbol id="email" viewBox="0 0 200 200"><path fill="#24bbf2" d="M145.7 73.4a6.8 6.8 0 0 0-6.8-6.8H61.1a6.8 6.8 0 0 0-6.8 6.8v53.2a6.7 6.7 0 0 0 6.8 6.8h77.8a6.8 6.8 0 0 0 6.9-6.8h-.1zm-6.8 54a3 3 0 0 1-2.1.9 2.6 2.6 0 0 1-2-.8l-25.6-24.3-7.2 6.4a2.7 2.7 0 0 1-1.9.8 3.2 3.2 0 0 1-1.9-.7l-7-6.3-25.8 24.1a3.2 3.2 0 0 1-2 .8 3 3 0 0 1-2.1-.9 2.9 2.9 0 0 1 .2-4.1l25.3-23.8-25.4-22.8a2.8 2.8 0 0 1-.3-4 3 3 0 0 1 4.1-.3l27.6 24.7.4.4h.1l6.8 6 34.7-31.1a2.9 2.9 0 0 1 4.1.2 2.8 2.8 0 0 1-.3 4l-25.1 22.7 25.3 24.1a2.9 2.9 0 0 1 .1 4z"/><path fill="#24bbf2" d="M100 16a84 84 0 1 0 84 84 84 84 0 0 0-84-84zm51.5 110.6a12.6 12.6 0 0 1-12.6 12.6H61.1a12.6 12.6 0 0 1-12.6-12.6V73.4a12.6 12.6 0 0 1 12.6-12.6h77.8a12.6 12.6 0 0 1 12.6 12.6z"/></symbol><symbol id="vimeo" viewBox="0 0 200 200"><path fill="#24bbf2" d="M100 16a84 84 0 1 0 84 84 84 84 0 0 0-84-84zm53 65h-.1q-.7 16.5-22.9 45.3t-38.7 30q-9.7 0-16.5-18.3C68 116 63.8 86.3 55 86.3c-.8 0-3.7 1.8-8.8 5.3L41 84.8c10.9-9.8 24.9-24.2 32.9-25S88 65 90 77.9c1.4 9.3 5.7 43.3 12.8 43.3 2.4 0 5.9-3.7 10.6-11.2s7.2-13.2 7.5-17.1c.7-6.5-1.8-9.7-7.5-9.7a19.5 19.5 0 0 0-8.3 1.8c5.5-18.2 16-27.1 31.5-26.6 11.6.3 17 7.9 16.4 22.6z"/></symbol><symbol id="linkedin" viewBox="0 0 200 200"><path fill="#24bbf2" d="M109 89.7zm-9-73.8a84.1 84.1 0 1 0 84.1 84.1A84 84 0 0 0 100 15.9zM77.8 141.5H57.7V81h20.1zM67.7 72.7h-.1c-6.8 0-11.1-4.6-11.1-10.4S61 51.8 67.8 51.8s11.1 4.5 11.3 10.5-4.4 10.4-11.4 10.4zm82.6 68.8h-20.1v-32.4c0-8.1-2.9-13.7-10.2-13.7-5.6 0-8.9 3.8-10.3 7.4a12.4 12.4 0 0 0-.7 4.9v33.8H88.9s.2-54.9 0-60.5H109v8.5c2.7-4.1 7.4-10 18.1-10 13.3 0 23.2 8.7 23.2 27.3z"/></symbol><symbol id="instagram" viewBox="0 0 200 200"><path fill="#24bbf2" d="M116.1 100A16.1 16.1 0 1 1 100 83.9a16.1 16.1 0 0 1 16.1 16.1z"/><path fill="#24bbf2" d="M137.6 71.6a15.7 15.7 0 0 0-9.2-9.2 27.2 27.2 0 0 0-8.9-1.7c-5.1-.2-6.6-.2-19.5-.2s-14.4 0-19.5.2a27.2 27.2 0 0 0-8.9 1.7 15.7 15.7 0 0 0-9.2 9.2 27.2 27.2 0 0 0-1.7 8.9c-.2 5.1-.2 6.6-.2 19.5s0 14.4.2 19.5a27.2 27.2 0 0 0 1.7 8.9 15.7 15.7 0 0 0 9.2 9.2 27.2 27.2 0 0 0 8.9 1.7c5.1.2 6.6.2 19.5.2s14.4 0 19.5-.2a27.2 27.2 0 0 0 8.9-1.7 15.5 15.5 0 0 0 9.2-9.2 27.2 27.2 0 0 0 1.7-8.9c.2-5.1.2-6.6.2-19.5s0-14.4-.2-19.5a27.2 27.2 0 0 0-1.7-8.9zM100 124.8a24.8 24.8 0 1 1 24.8-24.8 24.8 24.8 0 0 1-24.8 24.8zM125.7 80a5.8 5.8 0 1 1 5.8-5.7 5.8 5.8 0 0 1-5.8 5.7z"/><path fill="#24bbf2" d="M100 16a84 84 0 1 0 84 84 84 84 0 0 0-84-84zm47.9 103.9a34.8 34.8 0 0 1-2.2 11.7 24.5 24.5 0 0 1-14.1 14.1 34.8 34.8 0 0 1-11.7 2.2c-5.2.3-6.8.3-19.9.3s-14.7 0-19.9-.3a34.8 34.8 0 0 1-11.7-2.2 25.3 25.3 0 0 1-14.1-14.1 34.8 34.8 0 0 1-2.2-11.7c-.3-5.2-.3-6.8-.3-19.9s0-14.7.3-19.9a34.8 34.8 0 0 1 2.2-11.7 25.3 25.3 0 0 1 14.1-14.1 34.8 34.8 0 0 1 11.7-2.2c5.2-.3 6.8-.3 19.9-.3s14.7 0 19.9.3a34.8 34.8 0 0 1 11.7 2.2 25.3 25.3 0 0 1 14.1 14.1 34.8 34.8 0 0 1 2.2 11.7c.3 5.2.3 6.8.3 19.9s0 14.7-.3 19.9z"/></symbol><symbol id="behance" viewBox="0 0 200 200"><path fill="#24bbf2" d="M83.2 104.4H64.7v17h17.6c2.6-.1 7.6-.9 7.6-8.3s-6.7-8.7-6.7-8.7zm4.5-17.3c0-6.6-4.5-6.6-4.5-6.6H64.7v14.1H82c3 0 5.7-.9 5.7-7.5z"/><path fill="#24bbf2" d="M100 15.9a84.1 84.1 0 1 0 84.1 84.1A84 84 0 0 0 100 15.9zM116.5 73h26.2v7.8h-26.2zm-13.2 40.9c0 19.3-20.1 18.7-20.1 18.7h-33V69.2h33c10 0 17.9 5.6 17.9 16.9s-9.6 12.1-9.6 12.1c12.7 0 11.8 15.7 11.8 15.7zm48.9-1h-32.8c0 11.7 11.1 11 11.1 11 10.6 0 10.2-6.8 10.2-6.8h11.2c0 18.1-21.7 16.8-21.7 16.8-26 0-24.4-24.2-24.4-24.2s.1-24.3 24.4-24.3 22 27.5 22 27.5z"/><path fill="#24bbf2" d="M130.4 94.6c-9.8 0-11.1 9.8-11.1 9.8h20.8s.1-9.8-9.7-9.8z"/></symbol></svg>